<?xml version="1.0" encoding="UTF-8"?>
<svg xmlns="http://www.w3.org/2000/svg" width="56.81560225354919" height="36.815602253549066" viewBox="10.0 8.0 56.81560225354919 36.815602253549066" preserveAspectRatio="none">
  <g>
    <g id="s-Image_1-d1224">
      <g transform="matrix(1.533983427231216 0.0 0.0 1.5339834272312112 10.0 8.0)">
        <svg width="24.0" height="24.0" viewBox="0.0 0.0 24.0 24.0" preserveAspectRatio="none">
          <path d="M18.5 6C15.46 6 13 8.46 13 11.5c0 1.33.47 2.55 1.26 3.5H9.74c.79-.95 1.26-2.17 1.26-3.5C11 8.46 8.54 6 5.5 6S0 8.46 0 11.5 2.46 17 5.5 17h13c3.04 0 5.5-2.46 5.5-5.5S21.54 6 18.5 6zm-13 9C3.57 15 2 13.43 2 11.5S3.57 8 5.5 8 9 9.57 9 11.5 7.43 15 5.5 15zm13 0c-1.93 0-3.5-1.57-3.5-3.5S16.57 8 18.5 8 22 9.57 22 11.5 20.43 15 18.5 15z" fill="#FFFFFF"></path>
        </svg>
      </g>
    </g>
  </g>
  <g>
    <g id="s-Image_16-d1224">
      <g transform="matrix(1.0191533728864954 0.0 0.0 1.020610378425372 26.0 14.0)">
        <svg width="24.0" height="24.0" viewBox="0.0 0.0 24.0 24.0" preserveAspectRatio="none">
          <path d="M20 15.31L23.31 12 20 8.69V4h-4.69L12 .69 8.69 4H4v4.69L.69 12 4 15.31V20h4.69L12 23.31 15.31 20H20v-4.69zM12 18c-3.31 0-6-2.69-6-6s2.69-6 6-6 6 2.69 6 6-2.69 6-6 6z" fill="#FFFFFF"></path>
        </svg>
      </g>
    </g>
  </g>
  <g>
    <g id="s-Image_2-d1224">
      <g transform="matrix(1.533983427231216 0.0 0.0 1.5339834272312112 30.0 8.0)">
        <svg width="24.0" height="24.0" viewBox="0.0 0.0 24.0 24.0" preserveAspectRatio="none">
          <path d="M18.5 6C15.46 6 13 8.46 13 11.5c0 1.33.47 2.55 1.26 3.5H9.74c.79-.95 1.26-2.17 1.26-3.5C11 8.46 8.54 6 5.5 6S0 8.46 0 11.5 2.46 17 5.5 17h13c3.04 0 5.5-2.46 5.5-5.5S21.54 6 18.5 6zm-13 9C3.57 15 2 13.43 2 11.5S3.57 8 5.5 8 9 9.57 9 11.5 7.43 15 5.5 15zm13 0c-1.93 0-3.5-1.57-3.5-3.5S16.57 8 18.5 8 22 9.57 22 11.5 20.43 15 18.5 15z" fill="#FFFFFF"></path>
        </svg>
      </g>
    </g>
  </g>
</svg>
