<?xml version='1.0' encoding='utf-8'?>
<svg xmlns="http://www.w3.org/2000/svg" enable-background="new 0 0 841.89 595.28" version="1.1" viewBox="0 0 841.89 595.28">
<path d="m360.04 356.5s-14.506 5.177-19.707 2.329c-8.704-4.766-19.329-11.162-41.829-6.329-15.923 3.42-18.749 24.438-19.5 34.266-3 39.234 16.659 51.17 32 52.734 49.036 5 58-30 58-30l-8.964-53z"/>
<path d="m482.16 356.5s14.506 5.177 19.707 2.329c8.703-4.766 19.322-13.207 41.828-6.329 13.635 4.167 18.749 24.438 19.5 34.266 3 39.234-16.658 51.17-32 52.734-49.035 5-58-30-58-30l8.965-53z"/>
<path d="m420.09 454c62.143 3.267 71.742-65.546 72.407-95.5 1.908-85.918-70.536-88.296-70.536-88.296s-72.935 3.54-77.964 82.296c-2.021 31.649 0 97.5 76.093 101.5z"/>
<ellipse cx="356.5" cy="164.5" rx="38" ry="40"/>
<ellipse cx="509.5" cy="186.5" rx="38" ry="40"/>
<path d="m329 219c7.663-34.543 32.026-95.835 115-82.5 28 4.5 101.88 45.93 74 127.5-11.5 33.64-40.5 31.5-40.5 31.5s-24 24.5-67 16.5c-34.145-6.353-48.5-29.5-48.5-29.5s-43.5-16.167-33-63.5z" fill="#FFFEEE"/>
<ellipse cx="421.5" cy="387.93" rx="33.5" ry="38.073" fill="#FFFEEE"/>
<path d="m532.03 439.5c-6.181 0.63-11.721 0.62-16.69 0.14-3.689-7.21-5.84-15.87-5.84-25.17 0-25.13 15.67-45.5 35-45.5 6.53 0 12.66 2.33 17.89 6.39 0.971 4.29 1.4 8.37 1.641 11.41 2.999 39.23-16.661 51.169-32.001 52.73z" fill="#FFFEEE"/>
<path d="m311 439.5c6.181 0.631 11.721 0.621 16.69 0.141 3.689-7.211 5.84-15.871 5.84-25.17 0-25.13-15.67-45.501-35-45.501-6.53 0-12.66 2.33-17.89 6.391-0.971 4.289-1.4 8.369-1.641 11.41-2.999 39.229 16.661 51.168 32.001 52.729z" fill="#FFFEEE"/>
<ellipse transform="matrix(.9533 .3022 -.3022 .9533 95.419 -129.58)" cx="466.5" cy="243.6" rx="31.75" ry="39.75"/>
<ellipse cx="466.5" cy="241.12" rx="20.964" ry="22.628" fill="#F2E487"/>
<ellipse cx="466.5" cy="241.12" rx="15.75" ry="17"/>
<ellipse cx="465.75" cy="233.75" rx="7.75" ry="5.5" fill="#fff"/>
<circle cx="476.75" cy="239.25" r="3.25" fill="#fff"/>
<ellipse transform="matrix(.988 -.1548 .1548 .988 -31.468 61.77)" cx="381" cy="233" rx="31.75" ry="39.75"/>
<ellipse cx="381" cy="231.5" rx="20.964" ry="22.628" fill="#F2E487"/>
<ellipse cx="381" cy="231.5" rx="15.75" ry="17"/>
<ellipse cx="380.25" cy="226" rx="7.75" ry="5.5" fill="#fff"/>
<circle cx="391.25" cy="231.5" r="3.25" fill="#fff"/>
<path d="m382 258.12s21.5-27.618 48-20.118c27.892 7.894 28 38.5 28 38.5s-13.915 34.314-48.5 24c-28.5-8.5-27.5-42.382-27.5-42.382z" fill="#FFFEEE"/>
<ellipse transform="matrix(.9817 .1905 -.1905 .9817 57.431 -75.507)" cx="421.5" cy="261" rx="15.75" ry="9.375"/>
<path d="m472.61 313.6c-34.25-2.605-25.62 63.674-31.221 78.395-3.834 10.076-21.56 10.5-21.292 37.5 0.15 15.181 6.264 30.502 52.514 30.5 33.591-1e-3 42.091-17.252 40-29.5-3.5-20.5-14.569-28.134-18.286-38-5.002-13.274-5.214-56.5-5.214-56.5s-0.048-21.143-16.501-22.395z"/>
<path d="m380.25 313.6c-34.25-2.605-25.62 63.674-31.221 78.395-3.834 10.076-21.56 10.5-21.293 37.5 0.15 15.181 6.264 30.502 52.514 30.5 33.591-1e-3 42.091-17.252 40-29.5-3.5-20.5-14.569-28.134-18.286-38-5.001-13.274-5.214-56.5-5.214-56.5s-0.047-21.143-16.5-22.395z"/>
<path d="m415.54 280.58c15.416 3.543 20.889-2.222 20.889-2.222s-6.611 10.142-22.205 6.558c-12.183-2.799-14.543-15.34-14.543-15.34s2.525 7.94 15.859 11.004z"/>
</svg>