<?xml version='1.0' encoding='utf-8'?>
<svg xmlns:xlink="http://www.w3.org/1999/xlink" xmlns="http://www.w3.org/2000/svg" width="3472.67" height="2568.62" viewBox="0 0 3472.67 2568.62"> <defs> <style> .cls-1, .cls-11 { fill: none; } .cls-2 { fill: #9dd1c5; } .cls-3 { clip-path: url(#clip-path); } .cls-4 { fill: url(#linear-gradient); } .cls-5 { fill: #f9f7d5; } .cls-6 { fill: #fffcdd; } .cls-7 { fill: #297770; } .cls-8 { fill: url(#linear-gradient-2); } .cls-9 { fill: url(#linear-gradient-3); } .cls-10 { fill: url(#linear-gradient-4); } .cls-11, .cls-19 { stroke: #b900d9; stroke-miterlimit: 10; } .cls-12 { fill: #565859; } .cls-13 { fill: #6e7273; } .cls-14 { fill: #c2c2c2; } .cls-15 { fill: #fff; } .cls-16 { fill: url(#linear-gradient-5); } .cls-17 { fill: url(#linear-gradient-6); } .cls-18, .cls-19 { fill: #d87f27; } .cls-20 { fill: #c77320; } .cls-21 { fill: url(#linear-gradient-7); } .cls-22 { fill: url(#linear-gradient-8); } .cls-23 { fill: #bb5327; } .cls-24 { fill: url(#linear-gradient-9); } .cls-25 { fill: #ad631c; } .cls-26, .cls-27, .cls-28, .cls-29 { opacity: 0.5; } .cls-26 { fill: url(#linear-gradient-10); } .cls-27 { fill: url(#linear-gradient-11); } .cls-28 { fill: url(#linear-gradient-12); } .cls-29 { fill: url(#linear-gradient-13); } .cls-30 { fill: url(#linear-gradient-14); } .cls-31, .cls-33 { opacity: 0.3; } .cls-31 { fill: url(#linear-gradient-15); } .cls-32 { fill: #24615b; } .cls-33 { fill: url(#linear-gradient-16); } .cls-34 { fill: #dfe1e8; } .cls-35 { fill: #70726c; } .cls-36 { fill: #684d40; } .cls-37 { fill: #5b7954; } .cls-38 { fill: #d09a3e; } .cls-39 { fill: #ac3034; } .cls-40 { fill: #555751; } .cls-41 { fill: #b5822b; } .cls-42 { fill: #594033; } .cls-43 { fill: #1f5955; } .cls-44 { fill: #475e42; } .cls-45 { fill: #911b1d; } </style> <clipPath id="clip-path" transform="translate(39.24)"> <rect class="cls-1" width="3200" height="2400"/> </clipPath> <linearGradient id="linear-gradient" x1="1600.22" y1="1786.4" x2="1600.22" y2="2043.75" gradientUnits="userSpaceOnUse"> <stop offset="0" stop-color="#d6b59a"/> <stop offset="1" stop-color="#f5e4d4"/> </linearGradient> <linearGradient id="linear-gradient-2" x1="1505.05" y1="1654.72" x2="1695.39" y2="1654.72" gradientUnits="userSpaceOnUse"> <stop offset="0" stop-color="#e19c59"/> <stop offset="1" stop-color="#d87f27"/> </linearGradient> <linearGradient id="linear-gradient-3" x1="1539" y1="1645.7" x2="1661.44" y2="1645.7" gradientUnits="userSpaceOnUse"> <stop offset="0" stop-color="#c97552"/> <stop offset="1" stop-color="#bb5327"/> </linearGradient> <linearGradient id="linear-gradient-4" x1="1563.23" y1="1640.4" x2="1640.08" y2="1640.4" gradientUnits="userSpaceOnUse"> <stop offset="0" stop-color="#e1be83"/> <stop offset="0.41" stop-color="#d8ac60"/> <stop offset="0.78" stop-color="#d29f47"/> <stop offset="1" stop-color="#d09a3e"/> </linearGradient> <linearGradient id="linear-gradient-5" x1="1479.5" y1="1530.82" x2="1720.95" y2="1530.82" gradientUnits="userSpaceOnUse"> <stop offset="0" stop-color="#7f685d"/> <stop offset="1" stop-color="#684d40"/> </linearGradient> <linearGradient id="linear-gradient-6" x1="1599.46" y1="1156.55" x2="1439.42" y2="1156.55" gradientUnits="userSpaceOnUse"> <stop offset="0" stop-color="#c4c6c7"/> <stop offset="0.15" stop-color="#cbcdce"/> <stop offset="0.66" stop-color="#dfe0e1"/> <stop offset="1" stop-color="#e6e7e8"/> </linearGradient> <linearGradient id="linear-gradient-7" x1="1600.43" y1="1156.55" x2="1762.8" y2="1156.55" gradientUnits="userSpaceOnUse"> <stop offset="0" stop-color="#999b9e"/> <stop offset="0.39" stop-color="#b6b8ba"/> <stop offset="0.75" stop-color="#cacccd"/> <stop offset="1" stop-color="#d1d3d4"/> </linearGradient> <linearGradient id="linear-gradient-8" x1="1627.26" y1="1416.23" x2="1731.04" y2="1458.41" gradientUnits="userSpaceOnUse"> <stop offset="0" stop-color="#99928d"/> <stop offset="0.39" stop-color="#b8b2ad"/> <stop offset="0.77" stop-color="#d0cbc5"/> <stop offset="1" stop-color="#d9d4ce"/> </linearGradient> <linearGradient id="linear-gradient-9" x1="1630.83" y1="1157.37" x2="1763.59" y2="1253.03" xlink:href="#linear-gradient-8"/> <linearGradient id="linear-gradient-10" x1="1648.82" y1="798.61" x2="1764.79" y2="1529.34" gradientUnits="userSpaceOnUse"> <stop offset="0" stop-color="#b5b5b5"/> <stop offset="0.14" stop-color="#c4c4c4"/> <stop offset="0.5" stop-color="#e4e4e4"/> <stop offset="0.8" stop-color="#f8f8f8"/> <stop offset="1" stop-color="#fff"/> </linearGradient> <linearGradient id="linear-gradient-11" x1="1916.07" y1="798.54" x2="2032.05" y2="1529.34" gradientTransform="matrix(-1, 0, 0, 1, 3467.24, 0)" gradientUnits="userSpaceOnUse"> <stop offset="0" stop-color="#bfbfbf"/> <stop offset="0.06" stop-color="#c4c4c4"/> <stop offset="0.45" stop-color="#e4e4e4"/> <stop offset="0.78" stop-color="#f8f8f8"/> <stop offset="1" stop-color="#fff"/> </linearGradient> <linearGradient id="linear-gradient-12" x1="1406.17" y1="1327.01" x2="1352.72" y2="1593.14" gradientUnits="userSpaceOnUse"> <stop offset="0" stop-color="#efbf8f"/> <stop offset="0.19" stop-color="#ecba88"/> <stop offset="0.48" stop-color="#e3ac74"/> <stop offset="0.81" stop-color="#d59454"/> <stop offset="1" stop-color="#cc853f"/> </linearGradient> <linearGradient id="linear-gradient-13" x1="1673.43" y1="1327.01" x2="1619.98" y2="1593.14" gradientTransform="matrix(-1, 0, 0, 1, 3467.24, 0)" xlink:href="#linear-gradient-12"/> <linearGradient id="linear-gradient-14" x1="1572.29" y1="1114.63" x2="1632.48" y2="1174.54" gradientUnits="userSpaceOnUse"> <stop offset="0" stop-color="#297770"/> <stop offset="0.3" stop-color="#2b7e77"/> <stop offset="0.74" stop-color="#329289"/> <stop offset="1" stop-color="#37a197"/> </linearGradient> <linearGradient id="linear-gradient-15" x1="1581.22" y1="1082.47" x2="1601.16" y2="1144.29" gradientUnits="userSpaceOnUse"> <stop offset="0" stop-color="#f7f9ff"/> <stop offset="0.1" stop-color="#f6f5f8"/> <stop offset="0.24" stop-color="#f3eae4"/> <stop offset="0.41" stop-color="#efd8c4"/> <stop offset="0.61" stop-color="#e8be97"/> <stop offset="0.82" stop-color="#e09e5e"/> <stop offset="1" stop-color="#d87f27"/> </linearGradient> <linearGradient id="linear-gradient-16" x1="1590.33" y1="1110.72" x2="1616.87" y2="1193.05" gradientUnits="userSpaceOnUse"> <stop offset="0" stop-color="#e1e3e8"/> <stop offset="0.19" stop-color="#dadce1"/> <stop offset="0.46" stop-color="#c7c9cd"/> <stop offset="0.79" stop-color="#a7aaad"/> <stop offset="1" stop-color="#8e9194"/> </linearGradient> </defs> <title>infographic-launch</title> <g id="Background"> <rect class="cls-2" x="39.24" width="3200" height="2400"/> </g> <g id="Clouds"> <g class="cls-3"> <path class="cls-4" d="M1665.38,1920.25c-10.49-51.65-14-170.89-14-170.89h-102.3s-3.52,119.24-14,170.89c-11,54-66.36,152.29-66.36,152.29h263S1676.36,1974.27,1665.38,1920.25Z" transform="translate(39.24)"/> <path class="cls-5" d="M2784.46,246.42a81.5,81.5,0,0,0-26.53-2,95.84,95.84,0,0,0-139.84-82.27A124.61,124.61,0,0,0,2397.6,93.26a124.57,124.57,0,1,0-95.37,214.42,106,106,0,0,0,190.41,71.59,74.22,74.22,0,0,0,103.81,18.18,95.87,95.87,0,0,0,123-3.8,81.79,81.79,0,1,0,65-147.23Z" transform="translate(39.24)"/> <path class="cls-5" d="M2348.43,2023.53h-.25a123.23,123.23,0,0,0-244.89-10.4c-1-.51-2-1-3-1.47a110.72,110.72,0,0,0-174-70.07,115.28,115.28,0,0,0-210.46,81.13c-38.7,13.42-82.86,45.07-82.86,88.34,0,24.27,25.12,51.63,39.64,68.84a78.25,78.25,0,1,0,93.48,125.52,118,118,0,0,0,208.91-16.7c18.23,17.82,42.78,38.34,70.28,38.34,29.92,0,58.5-27,70.32-59.07,22.27,28.69,62.36,40.5,84.37,40.5,55.06,0,83.28-44.83,99.08-94.66a101.56,101.56,0,1,0,49.39-190.3Z" transform="translate(39.24)"/> <path class="cls-5" d="M1442.92,2249.19l-.2-.14a123.23,123.23,0,0,0-193.21-150.83c-.52-1-1.06-2-1.62-3a110.72,110.72,0,0,0-100.82-158.15A115.25,115.25,0,0,0,938.15,1865a116.53,116.53,0,0,0-9.49,15.79c-39.29-11.58-93.62-11.5-118.77,23.71-14.11,19.75-9.58,56.62-7.77,79.06A78.25,78.25,0,1,0,805.21,2140a118,118,0,0,0,179.7,107.86c4.48,25.09,12.52,56.06,34.9,72,24.35,17.39,63.3,12,91.55-7.18,1.45,36.29,27.19,69.2,45.11,82,44.8,32,93.82,11.93,135.65-19.43a101.55,101.55,0,1,0,150.8-126.13Z" transform="translate(39.24)"/> <path class="cls-5" d="M1626.47,2179.08h-.24a123.23,123.23,0,0,0-244.89-10.4c-1-.51-2-1-3-1.47a110.72,110.72,0,0,0-174-70.07,115.28,115.28,0,0,0-210.46,81.13c-38.7,13.42-82.86,45.07-82.86,88.34,0,24.27,25.12,51.63,39.63,68.84A78.25,78.25,0,1,0,1044.12,2461a118,118,0,0,0,208.92-16.7c18.23,17.81,42.77,38.34,70.28,38.34,29.92,0,58.5-27,70.31-59.07,22.28,28.69,62.36,40.5,84.38,40.5,55.06,0,83.28-44.83,99.08-94.66a101.56,101.56,0,1,0,49.38-190.3Z" transform="translate(39.24)"/> <path class="cls-5" d="M1594.77,2062.53h-.24a123.23,123.23,0,0,0-244.89-10.4c-1-.51-2-1-3-1.47a110.72,110.72,0,0,0-174-70.07,115.28,115.28,0,0,0-210.46,81.13c-38.7,13.42-82.86,45.07-82.86,88.34,0,24.27,25.12,51.63,39.63,68.84a78.25,78.25,0,1,0,93.48,125.52,118,118,0,0,0,208.92-16.7c18.23,17.82,42.77,38.34,70.28,38.34,29.92,0,58.5-27,70.31-59.07,22.28,28.69,62.36,40.5,84.38,40.5,55.06,0,83.28-44.83,99.08-94.66a101.56,101.56,0,1,0,49.38-190.3Z" transform="translate(39.24)"/> <path class="cls-5" d="M2164.23,2118.33H2164a123.23,123.23,0,0,0-244.89-10.4c-1-.51-2-1-3-1.47a110.72,110.72,0,0,0-174-70.07,115.25,115.25,0,0,0-211.92,62.76,117.06,117.06,0,0,0,1.46,18.37c-38.7,13.42-82.86,45.07-82.86,88.34,0,24.27,25.12,51.63,39.64,68.84a78.25,78.25,0,1,0,93.48,125.52,118,118,0,0,0,208.91-16.7c18.23,17.81,42.78,38.34,70.29,38.34,29.92,0,58.5-27,70.31-59.07,22.27,28.69,62.36,40.5,84.37,40.5,55.06,0,83.28-44.83,99.08-94.66a101.56,101.56,0,1,0,49.39-190.3Z" transform="translate(39.24)"/> <path class="cls-5" d="M2281.25,2129.47l-.24.06a123.23,123.23,0,0,0-241.08,44.26c-1.09-.27-2.19-.52-3.29-.75a110.71,110.71,0,0,0-185.19-29.67,115.26,115.26,0,0,0-192.69,108.27,116.49,116.49,0,0,0,5.51,17.59c-34.75,21.68-70.77,62.35-61.16,104.53,5.39,23.67,36,44.77,53.94,58.32a78.26,78.26,0,1,0,119,101.62,118,118,0,0,0,200-62.7c21.74,13.32,50.22,27.88,77.05,21.76,29.17-6.64,51-39.32,55.43-73.2,28.09,23,69.8,25.63,91.26,20.74,53.69-12.23,71.24-62.22,75.57-114.31a101.56,101.56,0,1,0,5.88-196.52Z" transform="translate(39.24)"/> <path class="cls-5" d="M679.78,1087.24l-.24.06a123.23,123.23,0,0,0-241.08,44.26c-1.09-.26-2.19-.52-3.29-.75A110.71,110.71,0,0,0,250,1101.14,115.26,115.26,0,0,0,57.29,1209.41,116.49,116.49,0,0,0,62.8,1227C28.05,1248.68-8,1289.35,1.64,1331.54c5.39,23.67,36,44.76,53.94,58.32a78.25,78.25,0,1,0,119,101.61,118,118,0,0,0,200-62.7c21.74,13.32,50.22,27.88,77.05,21.77,29.17-6.65,51-39.33,55.43-73.21,28.09,23,69.8,25.63,91.26,20.74,53.69-12.23,71.24-62.21,75.57-114.31a101.56,101.56,0,1,0,5.88-196.52Z" transform="translate(39.24)"/> <path class="cls-5" d="M1105.11,293.6a77.89,77.89,0,0,0-129.38-58.45,91.71,91.71,0,0,0-133.6-11A91.69,91.69,0,0,0,660.19,239a91.7,91.7,0,0,0-165.86,42h-.66a91.69,91.69,0,1,0,72.57,147.73A91.7,91.7,0,0,0,714.3,445a103.7,103.7,0,0,0,176.31-62.23l1.45.2a77.91,77.91,0,0,0,155-11.42c0-.85,0-1.69-.06-2.54A77.93,77.93,0,0,0,1105.11,293.6Z" transform="translate(39.24)"/> <path class="cls-6" d="M2336.47,594.66a112.88,112.88,0,0,0,.62-11.83,111.4,111.4,0,0,0-164.52-97.9A111.4,111.4,0,0,0,1956.88,477a111.46,111.46,0,0,0-144.5,85.82c-.59,0-1.27.28-1.79,0-17.43-10-42.26-7-57.37.67s-25.88,21.93-31.37,43.4a90.16,90.16,0,1,0,28.91,161.26c13.33,16.77,23.6,29.8,45.58,31,13.5.75,28.88-6.75,35.52-15.64,20.25,27.82,48.94,51.27,86,51.27,19.45,0,44.25-6,57.76-19.1,18.49,16.95,41.36,27,66.11,27,31,0,59.06-15.73,79.26-41.11a111.38,111.38,0,0,0,145,2.09,111.39,111.39,0,0,0,70.54-209Z" transform="translate(39.24)"/> <path class="cls-5" d="M3433.43,1008.51c0-61.57-60.44-111.48-135-111.48-28,0-54,7-75.61,19.11-24.61-21.51-59.46-34.93-98.12-34.93-32,0-61.33,9.18-84.46,24.52-23.13-15.34-52.49-24.52-84.46-24.52-73,0-132.47,47.87-134.91,107.67h-.09c-74.56,0-135,49.91-135,111.48s60.44,111.49,135,111.49a161.8,161.8,0,0,0,36.92-4.22c13,50.32,67.18,88.06,132,88.06,64.25,0,118-37.07,131.65-86.72q7.45-1.42,14.58-3.52a158.77,158.77,0,0,0,56.51,10.22c69.06,0,126-42.84,134-98.09C3387.57,1106.93,3433.43,1062.14,3433.43,1008.51Z" transform="translate(39.24)"/> <path class="cls-5" d="M449.46,2162.22a94.29,94.29,0,0,0-45.14,11.43,94.74,94.74,0,0,0-161.39-1.25c-7.58-32.81-42.27-57.59-83.94-57.59-38.38,0-70.85,21-81.66,50a94.73,94.73,0,1,0-21.84,186.91q4.44,0,8.78-.41c0,.14,0,.27,0,.41a94.73,94.73,0,0,0,186.67,22.84,95.25,95.25,0,0,0,13.75-7,94.74,94.74,0,0,0,160.66-19,94.73,94.73,0,1,0,24.12-186.34Z" transform="translate(39.24)"/> <path class="cls-5" d="M3081.73,2210.05a84.58,84.58,0,0,0-51.85,17.67,85,85,0,0,0-151.51-68.18,85,85,0,0,0-144.89,60.31,85.81,85.81,0,0,0,1.31,14.79,85,85,0,1,0-1.61,161.27,85,85,0,0,0,146.11-4.2,85,85,0,0,0,163.69-21,85,85,0,1,0,38.75-160.64Z" transform="translate(39.24)"/> </g> </g> <g id="Rocket"> <g> <path class="cls-7" d="M1600,1682.48v.44l-.22-.21Z" transform="translate(39.24)"/> <g> <path class="cls-8" d="M1560.25,1764.83c-20.39-22.62-35.73-55.26-48.28-102.72-13.76-52-7-99.07,20.16-139.9l16-24.1h104.13l16,24.1c27.13,40.81,33.91,87.88,20.16,139.89-11.54,43.65-27.18,77.62-46.48,101l-39.86,48.25Z" transform="translate(39.24)"/> <path class="cls-9" d="M1585.51,1742.08c-16.4-18.21-29.7-47.21-40.67-88.67-11.32-42.79-6.22-79.55,15.61-112.37l5.93-8.93h67.69L1640,1541c21.82,32.81,26.92,69.57,15.61,112.37-10.28,38.86-23.68,68.47-39.82,88L1601,1759.3Z" transform="translate(39.24)"/> <path class="cls-10" d="M1636.27,1648.3c-9.08,34.35-21.08,62.45-35.9,80.39-15.6-17.31-27.11-46-36.19-80.39-11-41.54-3.37-71.68,12.92-96.19h46.25C1639.64,1576.62,1647.25,1606.76,1636.27,1648.3Z" transform="translate(39.24)"/> </g> <path class="cls-7" d="M1599.53,1682.92" transform="translate(39.24)"/> <path class="cls-11" d="M1441,1262.83q.46,9.45,1.11,19Q1441.46,1272.28,1441,1262.83Z" transform="translate(39.24)"/> <path class="cls-11" d="M1443.94,1305.23q1.38,15.7,3.23,31.63Q1445.31,1320.93,1443.94,1305.23Z" transform="translate(39.24)"/> <g> <circle class="cls-12" cx="1638.84" cy="1025.9" r="3.27"/> <circle class="cls-13" cx="1638.57" cy="1025.57" r="2.81"/> <circle class="cls-14" cx="1638.33" cy="1025.13" r="2.18"/> <circle class="cls-15" cx="1637.77" cy="1024.36" r="1.2"/> </g> <g> <circle class="cls-12" cx="1673.04" cy="1025.13" r="3.27"/> <circle class="cls-13" cx="1672.78" cy="1024.81" r="2.81"/> <circle class="cls-14" cx="1672.53" cy="1024.37" r="2.18"/> <circle class="cls-15" cx="1671.97" cy="1023.6" r="1.2"/> </g> <g> <circle class="cls-12" cx="1706.73" cy="1021.42" r="3.27"/> <circle class="cls-13" cx="1706.47" cy="1021.1" r="2.81"/> <circle class="cls-14" cx="1706.22" cy="1020.66" r="2.18"/> <circle class="cls-15" cx="1705.66" cy="1019.89" r="1.2"/> </g> <g> <circle class="cls-12" cx="1740.17" cy="1016.62" r="3.27"/> <circle class="cls-13" cx="1739.9" cy="1016.3" r="2.81"/> <circle class="cls-14" cx="1739.65" cy="1015.86" r="2.18"/> <circle class="cls-15" cx="1739.09" cy="1015.09" r="1.2"/> </g> <g> <circle class="cls-12" cx="1638.17" cy="1025.9" r="3.27"/> <circle class="cls-13" cx="1638.44" cy="1025.57" r="2.81"/> <circle class="cls-14" cx="1638.69" cy="1025.13" r="2.18"/> <circle class="cls-15" cx="1639.25" cy="1024.36" r="1.2"/> </g> <g> <circle class="cls-12" cx="1603.97" cy="1025.13" r="3.27"/> <circle class="cls-13" cx="1604.24" cy="1024.81" r="2.81"/> <circle class="cls-14" cx="1604.48" cy="1024.37" r="2.18"/> <circle class="cls-15" cx="1605.04" cy="1023.6" r="1.2"/> </g> <g> <circle class="cls-12" cx="1570.28" cy="1021.42" r="3.27"/> <circle class="cls-13" cx="1570.55" cy="1021.1" r="2.81"/> <circle class="cls-14" cx="1570.79" cy="1020.66" r="2.18"/> <circle class="cls-15" cx="1571.35" cy="1019.89" r="1.2"/> </g> <g> <circle class="cls-12" cx="1536.85" cy="1016.62" r="3.27"/> <circle class="cls-13" cx="1537.12" cy="1016.3" r="2.81"/> <circle class="cls-14" cx="1537.36" cy="1015.86" r="2.18"/> <circle class="cls-15" cx="1537.92" cy="1015.09" r="1.2"/> </g> <path class="cls-16" d="M1720.47,1512.71l-120.46-.16-120,.16s-1.86,18,1.74,23.7c3.94,6.19,10.74,9,16.59,9.89,13.78,2.11,36.76,3.75,101.91,2.15,65.16,1.6,88.13,0,101.91-2.15,5.86-.89,12.66-3.7,16.6-9.89C1722.32,1530.76,1720.47,1512.71,1720.47,1512.71Z" transform="translate(39.24)"/> <path class="cls-17" d="M1600,1512.41l-120,.14c-38.82-152.52-57.46-318.2-22.14-473.33,20.42-89.68,62.26-177,136.34-234.37,1.65-1.28,4.37-3.05,6-4.29Z" transform="translate(39.24)"/> <path class="cls-18" d="M1600.22,1627.82c-13.88-48.38-42.6-179.63-46-210.38-1.71-15.52-.46-36,6-45.37,6.61-9.6,26.62-25.13,40-30.67Z" transform="translate(39.24)"/> <path class="cls-19" d="M1480,1512.55l-84.94,90.7s-44.11-116.86-48-138.09c-2.81-15.3-9.87-44.58,3.9-68.77,18.56-32.62,96.23-59.53,96.23-59.53h0A1338,1338,0,0,0,1480,1512.55Z" transform="translate(39.24)"/> <path class="cls-20" d="M1853,1465.16c-3.9,21.23-48,138.09-48,138.09l-70.28-75L1720,1512.55a1338,1338,0,0,0,32.81-175.69h0s4.64,1.61,11.91,4.5h0c22.51,9,70.29,30.37,84.32,55C1862.84,1420.58,1855.78,1449.86,1853,1465.16Z" transform="translate(39.24)"/> <path class="cls-21" d="M1756.75,1306.61c-3.66,39.18-9.43,78.14-16.74,116.4-5.79,30.36-12.55,60.29-20,89.54h-10.9l-109.13-.13.23-711.85c1.67,1.24,3.42,2.56,5.07,3.84,47.89,37.08,83.73,88.91,107.42,144.28,5.88,13.72,11.09,27.73,15.71,41.92,15.57,47.83,25,97.48,29.54,147.91q1.8,20.06,2.59,40.24A960.55,960.55,0,0,1,1756.75,1306.61Z" transform="translate(39.24)"/> <path class="cls-22" d="M1740,1423c-5.79,30.36-12.55,60.29-20,89.54h-10.9l-102.33-42.49V1344.87Z" transform="translate(39.24)"/> <path class="cls-23" d="M1600,1512.41l.25,115.41c13.89-48.38,42.14-179.63,45.53-210.38,1.71-15.52.46-36-6-45.37-6.61-9.6-26.62-25.13-40-30.67Z" transform="translate(39.24)"/> <path class="cls-18" d="M1745.5,1056.06c-25.32-45.83-80.64-77.66-144.87-77.85h-1.26c-64.37.23-119.76,32.25-144.95,78.27,7.79-38.64,18.69-74.66,32.76-107.53,27.16-28.62,67.29-46.8,112.1-47h1.44c44.73.17,84.8,18.24,112,46.74C1726.78,981.51,1737.69,1017.48,1745.5,1056.06Z" transform="translate(39.24)"/> <path class="cls-11" d="M1453,1059.1c.45-.88.92-1.75,1.4-2.62-.25,1.23-.5,2.47-.74,3.71-.07.39-.15.78-.22,1.17C1453.3,1060.61,1453.16,1059.86,1453,1059.1Z" transform="translate(39.24)"/> <path class="cls-11" d="M1747.12,1059.1q-.22,1.32-.51,2.64c-.09-.52-.19-1-.29-1.55-.27-1.38-.54-2.76-.82-4.13C1746.05,1057.06,1746.6,1058.08,1747.12,1059.1Z" transform="translate(39.24)"/> <path class="cls-24" d="M1756.75,1306.61l-156.39-99.21-1.2-.76-7.09-25.43,8.36-32.55,8.64-33.65,46.53-6.39,105,70.13A960.55,960.55,0,0,1,1756.75,1306.61Z" transform="translate(39.24)"/> <path class="cls-25" d="M1764.75,1341.36h0c-.54,7.61-2.4,52.93-9.9,100.45-5.22,33.13-12.46,63-20.17,86.38L1720,1512.55a1338,1338,0,0,0,32.81-175.69h0S1757.48,1338.47,1764.75,1341.36Z" transform="translate(39.24)"/> <path class="cls-11" d="M1747.12,1059.1q-.22,1.32-.51,2.64c-.09-.52-.19-1-.29-1.55-.27-1.38-.54-2.76-.82-4.13C1746.05,1057.06,1746.6,1058.08,1747.12,1059.1Z" transform="translate(39.24)"/> <path class="cls-26" d="M1720,1512.55l-14.84,0c13.39-64.89,25.07-184.46,27.92-240.2,3.38-66-4.5-168-20.25-244.71s-112.63-227.06-112.63-227.06c1.67,1.24,4,3,5.6,4.29,47.89,37.08,83.2,88.46,106.89,143.83,5.88,13.72,11.09,27.73,15.71,41.92,15.57,47.83,25,97.48,29.54,147.91C1769.22,1263.68,1750.28,1393.67,1720,1512.55Z" transform="translate(39.24)"/> <path class="cls-27" d="M1480,1512.55l14.84,0c-13.39-64.89-25.07-184.46-27.92-240.2-3.38-66,4.5-168,20.25-244.71s113.09-227.06,113.09-227.06c-1.67,1.24-4.41,3-6.06,4.29-47.89,37.08-83.2,88.46-106.89,143.83-5.88,13.72-11.09,27.73-15.71,41.92-15.57,47.83-25,97.48-29.54,147.91C1430.76,1263.68,1449.7,1393.67,1480,1512.55Z" transform="translate(39.24)"/> <path class="cls-28" d="M1398.42,1458.69c-6.75,47.81-9,107.43-3.38,144.56,0,0-44.11-116.86-48-138.09-2.81-15.3-9.87-44.58,3.9-68.77,18.56-32.62,96.23-59.53,96.23-59.53h0C1436.67,1352.94,1405.17,1410.88,1398.42,1458.69Z" transform="translate(39.24)"/> <path class="cls-29" d="M1801.56,1458.69c6.75,47.81,9,107.43,3.38,144.56,0,0,44.11-116.86,48-138.09,2.81-15.3,9.87-44.58-3.9-68.77-18.56-32.62-96.23-59.53-96.23-59.53h0C1763.31,1352.94,1794.81,1410.88,1801.56,1458.69Z" transform="translate(39.24)"/> <g> <circle class="cls-18" cx="1638.4" cy="1141.39" r="65.25"/> <path class="cls-30" d="M1645.3,1141.38c0,1.49-.07,3-.21,4.43a46.13,46.13,0,0,1-42,41.54c-1.31.11-2.63.17-4,.17a45.86,45.86,0,0,1-32.08-13,46,46,0,0,1-14.06-33.15c0-.93,0-1.85.08-2.76a45.4,45.4,0,0,1,1.44-9,46.14,46.14,0,0,1,90.76,11.78Z" transform="translate(39.24)"/> <path class="cls-31" d="M1548.93,1102.57c7.87-9,14-14,21.09-17.72a60.76,60.76,0,0,1,29.14-7c13.45,0,27.21,2.73,37.66,11.48,10.71,9,21.51,20.3,23.48,33.8s-8.72-15.75-28.12-26.43-48.38-8.16-63.56,2.25-21.1,28.12-21.1,42.47-7.11,22.8-10.34,10.4S1539.29,1113.59,1548.93,1102.57Z" transform="translate(39.24)"/> <path class="cls-32" d="M1556.62,1145.87a46.14,46.14,0,0,1,80.2-31.13,46.13,46.13,0,1,0-71.71,57.77A45.9,45.9,0,0,1,1556.62,1145.87Z" transform="translate(39.24)"/> <path class="cls-33" d="M1617.15,1098.88l-64.05,39.74a45.4,45.4,0,0,1,1.44-9l51-33.91A46.06,46.06,0,0,1,1617.15,1098.88Zm21.75,19-77.5,50a45.5,45.5,0,0,0,5.68,6.63l75.13-49.79A46.06,46.06,0,0,0,1638.9,1117.93Zm-53.27,67.58a46.14,46.14,0,0,0,13.53,2c1.34,0,2.66-.06,4-.17L1639,1164.7a45.84,45.84,0,0,0,6.11-18.89Z" transform="translate(39.24)"/> <g> <circle class="cls-12" cx="1638.84" cy="1082.57" r="3.27"/> <circle class="cls-13" cx="1638.57" cy="1082.25" r="2.81"/> <circle class="cls-14" cx="1638.33" cy="1081.81" r="2.18"/> <circle class="cls-15" cx="1637.77" cy="1081.04" r="1.2"/> </g> <g> <circle class="cls-12" cx="1680.33" cy="1100.03" r="3.27"/> <circle class="cls-13" cx="1680.37" cy="1099.61" r="2.81"/> <circle class="cls-14" cx="1680.51" cy="1099.13" r="2.18"/> <circle class="cls-15" cx="1680.66" cy="1098.19" r="1.2"/> </g> <g> <circle class="cls-12" cx="1697.32" cy="1141.72" r="3.27"/> <circle class="cls-13" cx="1697.65" cy="1141.45" r="2.81"/> <circle class="cls-14" cx="1698.09" cy="1141.21" r="2.18"/> <circle class="cls-15" cx="1698.86" cy="1140.65" r="1.2"/> </g> <g> <circle class="cls-12" cx="1679.86" cy="1183.21" r="3.27"/> <circle class="cls-13" cx="1680.28" cy="1183.25" r="2.81"/> <circle class="cls-14" cx="1680.76" cy="1183.39" r="2.18"/> <circle class="cls-15" cx="1681.7" cy="1183.53" r="1.2"/> </g> <g> <circle class="cls-12" cx="1638.17" cy="1200.2" r="3.27"/> <circle class="cls-13" cx="1638.44" cy="1200.52" r="2.81"/> <circle class="cls-14" cx="1638.69" cy="1200.96" r="2.18"/> <circle class="cls-15" cx="1639.25" cy="1201.73" r="1.2"/> </g> <g> <circle class="cls-12" cx="1596.68" cy="1182.74" r="3.27"/> <circle class="cls-13" cx="1596.64" cy="1183.16" r="2.81"/> <circle class="cls-14" cx="1596.5" cy="1183.64" r="2.18"/> <circle class="cls-15" cx="1596.36" cy="1184.58" r="1.2"/> </g> <g> <circle class="cls-12" cx="1579.69" cy="1141.05" r="3.27"/> <circle class="cls-13" cx="1579.37" cy="1141.32" r="2.81"/> <circle class="cls-14" cx="1578.93" cy="1141.56" r="2.18"/> <circle class="cls-15" cx="1578.16" cy="1142.13" r="1.2"/> </g> <g> <circle class="cls-12" cx="1597.16" cy="1099.56" r="3.27"/> <circle class="cls-13" cx="1596.74" cy="1099.52" r="2.81"/> <circle class="cls-14" cx="1596.25" cy="1099.38" r="2.18"/> <circle class="cls-15" cx="1595.31" cy="1099.24" r="1.2"/> </g> <path class="cls-34" d="M1535,1133.88c-.12-5.29,1.23-11.2,6.11-21.36a59.25,59.25,0,0,1,16.17-20.55,71.8,71.8,0,0,1,19.54-11.27c8.31-3,12.86-4,21.71-3.86-.53,1-30,7.75-40.61,17.58C1547.55,1104,1540.69,1119.12,1535,1133.88Z" transform="translate(39.24)"/> <path class="cls-34" d="M1572.83,1180.44s13.29,8.57,26.33,8.2,26.83-7.43,32.74-12.75a47.36,47.36,0,0,0,13.4-22.32s-2.9,16.69-12.09,23.63-20.63,12.94-33.94,13.12S1578.58,1186.34,1572.83,1180.44Z" transform="translate(39.24)"/> </g> </g> </g> <g id="Layer_1" data-name="Layer 1"> <path class="cls-35" d="M1989.31,278.67A992.79,992.79,0,0,0,1625,200.3V600.51a596.83,596.83,0,0,1,381.1,157.82l283-283A995.42,995.42,0,0,0,1989.31,278.67Z" transform="translate(39.24)"/> <path class="cls-7" d="M875.64,510.56a997.3,997.3,0,0,0-275.33,664.16h400.21a596.87,596.87,0,0,1,158.12-381.16Z" transform="translate(39.24)"/> <path class="cls-36" d="M1210.69,278.67A995.59,995.59,0,0,0,911,475.22l283,283a596.89,596.89,0,0,1,381-157.71V200.3A992.79,992.79,0,0,0,1210.69,278.67Z" transform="translate(39.24)"/> <path class="cls-37" d="M1047.07,1433.49a594.45,594.45,0,0,1-46.57-208.77H600.3a997.25,997.25,0,0,0,275,664.38l283-283A596.78,596.78,0,0,1,1047.07,1433.49Z" transform="translate(39.24)"/> <path class="cls-38" d="M2199.5,1224.72A596.88,596.88,0,0,1,2041.78,1606l283,283a997.23,997.23,0,0,0,274.92-664.27Z" transform="translate(39.24)"/> <path class="cls-39" d="M2521.33,810.69a995.44,995.44,0,0,0-196.87-300l-283,283a596.92,596.92,0,0,1,158,381.05h400.21A992.84,992.84,0,0,0,2521.33,810.69Z" transform="translate(39.24)"/> <path class="cls-40" d="M2059.18,705.25l-53.08,53.08A596.43,596.43,0,0,0,1877.77,668L1775.05,748.1l-17.81-127.36A596.87,596.87,0,0,0,1625,600.51v-75C1792.49,531.56,1944.4,598.68,2059.18,705.25Z" transform="translate(39.24)"/> <path class="cls-41" d="M2274.55,1224.72c-6,167.54-73.12,319.52-179.7,434.34L2041.78,1606A596.23,596.23,0,0,0,2132,1477.76l-80.13-102.71,127.36-17.81a596.93,596.93,0,0,0,20.24-132.52Z" transform="translate(39.24)"/> <path class="cls-42" d="M1575,525.46v75a595.59,595.59,0,0,0-154.8,26.83l-16,129.34-102.61-77.43a597.07,597.07,0,0,0-107.62,79l-53.07-53.07C1255.7,598.63,1407.57,531.56,1575,525.46Z" transform="translate(39.24)"/> <path class="cls-43" d="M1068,922.24,1148.1,1025l-127.37,17.81a597.9,597.9,0,0,0-20.21,132h-75c6.17-167.54,73.4-319.49,180.09-434.24l53.08,53.08A596.23,596.23,0,0,0,1068,922.24Z" transform="translate(39.24)"/> <path class="cls-44" d="M1158.32,1606.1l-53.07,53.07c-106.63-114.83-173.76-266.85-179.8-434.45h75a595.93,595.93,0,0,0,26.83,155.08l129.35,16-77.43,102.61A597.08,597.08,0,0,0,1158.32,1606.1Z" transform="translate(39.24)"/> <path class="cls-45" d="M2274.53,1174.72h-75.05a595.73,595.73,0,0,0-26.82-154.52l-129.34-16,77.43-102.61a597.71,597.71,0,0,0-79.28-108l53.07-53.07A672.43,672.43,0,0,1,2274.53,1174.72Z" transform="translate(39.24)"/> </g> </svg>