<?xml version="1.0" encoding="UTF-8"?>
<svg viewBox="0 0 422.92 561.83" xmlns="http://www.w3.org/2000/svg">
 <g stroke-linejoin="round">
  <g stroke-linecap="round">
   <g stroke-width="4">
    <path d="m372.62 79.264c22.876 41.383 34.223 93.29 35.25 147.78 0.94861 50.335-12.764 97.881-38.188 111.34 11.874 3.8071 49.799-11.475 51.188-90.344 1.141-64.817-17.524-124.45-48.25-168.78zm-86.094 103.5c-7.3123 0.13644-15.381 2.0942-24.281 6.2812-85.151 40.06-8.3764 284.06-33.031 284.06-50.791 0-96.649-29.241-129.19-76.156 32.645 59.024 84.195 97.156 142.19 97.156 24.655 0-52.12-244 33.031-284.06 26.397-12.418 45.512-5.2184 59.156 10.906-10.18-21.958-25.479-38.605-47.875-38.188z" fill-opacity=".314"/>
    <path d="m420.87 248.06c-1.3884 78.869-54.325 113.15-55.199 79.844-1.0751-42.114-19.214-151.35-90.415-117.86-71.201 33.497-8.3898 284.07-33.045 284.07-98.62 0-178.66-110.23-178.66-246.06 0-135.82 80.039-246.06 178.66-246.06 98.62 0 181.02 111.96 178.66 246.06z" fill="#bf4e1a" stroke="#000"/>
   </g>
   <g stroke="#000" stroke-width="2.977">
    <path d="m326.3 379.44a163.15 163.3 0 1 1 -326.3 0 163.15 163.3 0 1 1 326.3 0z" fill="#c14413"/>
    <ellipse cx="159.46" cy="399.17" rx="60" ry="93" fill="#fff"/>
   </g>
   <g fill-opacity=".314" stroke-width="4">
    <path d="m165.15 226.14c-17.357 0-34.074 2.7378-49.769 7.7701 14.118-3.3002 29.008-5.0821 44.398-5.0821 42.216 0 80.715 13.276 109.69 35.071-28.286-23.576-64.663-37.759-104.32-37.759zm154.51 110.71c2.1409 8.7203 3.2732 17.724 3.2732 26.964 0 74.518-73.095 134.99-163.16 134.99-75.312 0-138.73-42.282-157.49-99.71 5.0009 85.648 76.042 153.64 162.86 153.64 90.06 0 163.16-73.16 163.16-163.3 0-18.39-3.0367-36.086-8.6445-52.585z"/>
    <path d="m165.15 226.14c-27.825 0-54.031 6.9684-76.961 19.278 10.86 37.966 42.593 73.081 80.067 73.081 36.482 6.1e-5 67.577-33.266 79.227-70.057-24.171-14.176-52.313-22.302-82.333-22.302z"/>
   </g>
  </g>
  <path d="m276.94 90.121c-19.81 0.005096-60.05 10.542-67.094 37.87-0.10675 0.21368-0.3219 0.97461-0.54474 2.1355-12.746-7.7852-27.724-12.313-43.738-12.313-16.713 0-32.253 4.9351-45.35 13.358-0.26916-1.7064-0.59207-2.9118-0.72632-3.1805-7.0438-27.328-47.281-37.842-67.094-37.848-3.1584-9.46e-4 -5.7692 0.27029-7.6718 0.7724-10.636 1.4801-22.273 5.7249-21.427 8.0421 7.8033-1.3237 11.748 0.19733 11.621 1.454-0.23885 2.3585-4.9423 2.9876-3.4274 11.495 2.8518-4.1301 6.8239-5.5417 9.9416-6.2019 3.2026 20.082 17.202 55.158 43.398 56.976 2.2467 0.15591 4.3521 0.1539 6.3326 0.11362-6.1834 11.718-9.6919 25.068-9.6919 39.234 0 46.471 37.665 100.32 84.095 100.32s84.14-53.851 84.14-100.32c0-14.152-3.5194-27.478-9.6919-39.188 1.4265-0.01239 2.9388-0.051086 4.4941-0.15903 26.116-1.8122 40.117-36.683 43.375-56.794 2.9751 0.73318 6.5342 2.236 9.1472 6.0202 1.515-8.5076-3.1885-9.1367-3.4274-11.495-0.12726-1.2566 3.8179-2.7776 11.621-1.454 0.80121-2.194-9.5882-6.1241-19.724-7.7922-1.9256-0.68213-4.8866-1.046-8.557-1.045z" fill="#ce4d1a" fill-rule="evenodd" stroke="#000" stroke-width="4"/>
  <g stroke-linecap="round">
   <g fill-opacity=".314">
    <path d="m197.64 339.49c-13.938-13.945-38.753-14.659-53.51-1.5419-10.393 9.1022-14.536 23.094-15.892 36.344-0.96118 9.556-0.39062 19.798 4.5108 28.312 4.9153 6.3218 13.484 7.655 21.007 8.0315 14.988 0.6684 30.829-2.9474 42.817-12.437 14.438-12.391 17.8-35.464 7.2003-51.271-1.7272-2.7047-3.817-5.1938-6.1331-7.437z" stroke-width="4"/>
    <path d="m148.13 367.74a30.855 30.882 0 1 1 -61.71 0 30.855 30.882 0 1 1 61.71 0z" stroke-width="8.548"/>
   </g>
   <g stroke-width="4">
    <path d="m192.64 329.49c-13.938-13.945-38.753-14.659-53.51-1.5419-10.393 9.1022-14.536 23.094-15.892 36.344-0.96118 9.556-0.39062 19.798 4.5108 28.312 4.9153 6.3218 13.484 7.655 21.007 8.0315 14.988 0.6684 30.829-2.9474 42.817-12.437 14.438-12.391 17.8-35.464 7.2003-51.271-1.7272-2.7047-3.817-5.1938-6.1331-7.437z" fill="#a05a2c" stroke="#000"/>
    <path d="m161.2 318.72c2.9672 0.70465 5.844 1.7985 8.5353 3.3137 2.6132 1.4159 5.0802 3.1044 7.2854 5.0756 13.336 11.395 16.089 32.698 6.3509 47.264-8.2835 11.386-21.452 18.514-34.922 21.633-5.4642 1.2341-11.684 2.0859-17.002 0.06073 4.9132 3.3846 11.425 4.272 17.301 4.566 14.988 0.66846 30.831-2.9517 42.819-12.442 14.438-12.391 17.804-35.467 7.2041-51.274-1.7272-2.7047-3.817-5.1931-6.1331-7.4362-8.1546-8.1586-20.031-11.781-31.439-10.762z" fill-opacity=".314"/>
   </g>
  </g>
 </g>
 <g fill-rule="evenodd" stroke-width="4">
  <path d="m193.01 325.98c2.7468-8.5337 16.618-16.431 20.727-13.456 4.1092 2.9752 4.4267 10.058 3.7004 11.105-0.72626 1.0469-8.1404-2.1675-12.819 1.6992-4.6782 3.8668-7.0183 7.1684-7.0183 7.1684l-4.5904-6.5164z" fill="#502d16" stroke="#000"/>
  <path d="m216.56 316.23c0.089355 0.9339-0.041229 1.708-0.28784 2.0038-0.71359 0.85596-7.8159 0.016846-12.374 3.5478-4.5586 3.5309-6.8559 6.2334-6.8559 6.2334l-3.6352-3.0554c-0.14529 0.34088-0.29324 0.68109-0.40387 1.0247l4.593 6.5163s2.3433-3.3067 7.0216-7.1734c4.6782-3.8668 12.091-0.65149 12.817-1.6984 0.49835-0.71832 0.49756-4.2738-0.87476-7.3989z" fill-opacity=".314"/>
 </g>
 <g stroke-linecap="round" stroke-linejoin="round">
  <g stroke-width="4">
   <path d="m196.2 326.03c-13.686-13.551-36.378-17.056-52.339-6.882-3.612 1.9856-2.5133 6.9782-2.4815 6.8954 6.0322-4.7665 12.281 0.4812 20.497 6.3747 10.05 7.208 21.096 18.264 29.206 29.016 5.6757 7.5246 9.7413 14.914 6.4879 20.08 0.16742 0.052002 4.894 1.3841 7.0499-3.016 10.881-20.516 4.73-40.218-8.4211-52.468z" fill="#502d16" stroke="#000"/>
   <path d="m195.13 324.52c4.3344 11.261 3.7667 21.915-1.7415 32.196-1.2495 2.3322-3.1684 1.578-4.785 1.5428 0.84992 1.0585 1.6816 2.1215 2.4786 3.1781 5.6757 7.5245 9.7446 14.911 6.4912 20.077 0.16742 0.052002 4.8937 1.3847 7.0496-3.0154 9.9668-18.792 5.5972-39.242-9.4928-53.978z" fill-opacity=".314"/>
  </g>
  <path d="m138.91 346.04a26.721 26.745 0 1 1 -53.443 30.855 26.721 26.745 0 1 1 53.443 -30.855z" fill="#ce5016" stroke="#000" stroke-width="6.363"/>
  <path d="m263.9 368.22a30.855 30.882 0 1 1 -61.71 0 30.855 30.882 0 1 1 61.71 0z" fill-opacity=".314" stroke-width="8.548"/>
  <g stroke="#000">
   <path d="m249.86 383.28a21.818 21.837 0 1 1 -43.636 -43.636 21.818 21.837 0 1 1 43.636 43.636z" fill="#ce4412" stroke-width="6.363"/>
   <g stroke-width="4">
    <path d="m244.21 459.67c-40.83 0-73.982 33.181-73.982 74.048 0 8.4493 1.4203 16.542 4.0285 24.108h139.86c2.6082-7.566 4.0285-15.659 4.0285-24.108 0-40.866-33.11-74.048-73.94-74.048z" fill="#c95116"/>
    <path d="m96.241 459.67c-40.83 0-73.94 33.181-73.94 74.048 0 8.4493 1.4203 16.542 4.0285 24.108h139.86c2.6082-7.566 4.0285-15.659 4.0285-24.108 0-40.866-33.152-74.048-73.982-74.048z" fill="#bc4914"/>
   </g>
   <g fill="#fff" stroke-width="1.374">
    <path d="m162.61 195.26a27.474 27.498 0 1 1 -54.948 0 27.474 27.498 0 1 1 54.948 0z"/>
    <path d="m223.48 195.26a27.474 27.498 0 1 1 -54.947 0 27.474 27.498 0 1 1 54.947 0z"/>
   </g>
  </g>
  <g stroke-width="4">
   <path d="m154.14 198.65a8.8761 8.884 0 1 1 -17.752 0 8.8761 8.884 0 1 1 17.752 0z"/>
   <path d="m194.74 198.65a8.8761 8.884 0 1 1 -17.752 0 8.8761 8.884 0 1 1 17.752 0z"/>
  </g>
 </g>
 <path d="m151.37 248.05c4.4831-4.7862 23.516-5.8256 27.496 0.59827 3.9801 6.424-5.9775 19.743-13.748 19.145-7.7479-0.59653-17.942-15.265-13.748-19.743z" fill-rule="evenodd"/>
 <g stroke-linejoin="round">
  <g fill="#502d16" stroke="#000">
   <g fill-rule="evenodd" stroke-width="4">
    <path d="m101.33 150.42c-2.9587-42.728-46.917-52.458-49.03-47.381-2.1133 5.0766 8.0308 62.188 49.03 47.381z"/>
    <path d="m226.6 150.42c2.9587-42.728 46.917-52.458 49.03-47.381 2.1133 5.0766-8.0308 62.188-49.03 47.381z"/>
   </g>
   <g stroke-linecap="round" stroke-width="2.977">
    <path d="m89.695 536.47a19.807 23.52 0 1 1 -39.614 0 19.807 23.52 0 1 1 39.614 0z"/>
    <path d="m139.38 536.47a19.807 23.52 0 1 1 -39.614 0 19.807 23.52 0 1 1 39.614 0z"/>
    <path d="m115.88 536.47a19.807 23.52 0 1 1 -39.614 0 19.807 23.52 0 1 1 39.614 0z"/>
    <path d="m242.11 536.47a19.807 23.52 0 1 1 -39.614 0 19.807 23.52 0 1 1 39.614 0z"/>
    <path d="m291.79 536.47a19.807 23.52 0 1 1 -39.614 0 19.807 23.52 0 1 1 39.614 0z"/>
    <path d="m268.29 536.47a19.807 23.52 0 1 1 -39.614 0 19.807 23.52 0 1 1 39.614 0z"/>
   </g>
  </g>
  <g stroke-linecap="round">
   <path d="m243.07 169.44c1.5321 6.3365 2.35 12.976 2.35 19.782 0 46.471-37.708 100.3-84.137 100.3-33.841 0-62.994-28.612-76.332-62.119 10.329 38.687 42.515 74.972 80.612 74.972 46.43 0 84.137-53.869 84.137-100.34 0-11.564-2.3609-22.563-6.5883-32.593h-0.041962z" fill-opacity=".314" stroke-width="4"/>
   <g fill="#502d16" stroke="#000" stroke-width="5.67">
    <path d="m121.9 368.86a5.3072 6.0508 0 1 1 -10.614 18.401 5.3072 6.0508 0 1 1 10.614 -18.401z"/>
    <path d="m135.22 345.78a5.3072 6.0508 0 1 1 -10.614 18.401 5.3072 6.0508 0 1 1 10.614 -18.401z"/>
    <path d="m134.27 360.59a5.3072 6.0508 0 1 1 -10.614 18.401 5.3072 6.0508 0 1 1 10.614 -18.401z"/>
    <path d="m217.58 366.92"/>
    <path d="m210.69 341.18"/>
    <path d="m207.77 355.73"/>
   </g>
  </g>
 </g>
</svg>
