<?xml version="1.0" encoding="UTF-8"?>
<svg viewBox="0 0 335.62131 312.57803" xmlns="http://www.w3.org/2000/svg">
 <g transform="translate(-183.13 -370.09)">
  <path transform="matrix(1.2168 0 0 1.2168 -76.15 -121.55)" d="m441.29 560.71c0.01482 49.728-40.294 90.048-90.022 90.048s-90.036-40.32-90.022-90.048c-0.01482-49.728 40.294-90.048 90.022-90.048s90.036 40.32 90.022 90.048z" fill="#784421" stroke="#000" stroke-linecap="round" stroke-linejoin="round" stroke-width="3.2874"/>
  <path d="m454.19 523.12c0.07679 1.6816 0.125 3.3933 0.125 5.0938 0 60.464-49.067 109.53-109.53 109.53-47.262 0-87.591-29.999-102.94-71.969 2.6535 58.112 50.674 104.47 109.44 104.47 60.464 0 109.53-49.067 109.53-109.53 0-13.202-2.3382-25.87-6.625-37.594z" fill-opacity=".31373"/>
  <path d="m359.45 671.28c0 9.0908 14.665 9.3814 32.735 9.3814s32.735 0.69349 32.735-9.3814c0-17.716-14.665-32.094-32.735-32.094s-32.735 14.378-32.735 32.094z" fill="#502d16" stroke="#000" stroke-linecap="round" stroke-linejoin="round" stroke-width="4"/>
  <path d="m435.91 536.83c0 50.6-55.121 91.666-81.838 91.666-25.718 0-81.838-41.067-81.838-91.666s24.625-91.666 81.838-91.666c57.223 0 81.838 41.067 81.838 91.666z" fill-opacity=".31373"/>
  <path d="m404.78 680.06c0-16.368-9.4428-26.44-9.4428-26.44s3.7771 13.849 3.1476 26.44h6.2952z" fill-opacity=".31373" fill-rule="evenodd" stroke="#000" stroke-linejoin="round" stroke-width="4"/>
  <path d="m348.61 430.41c-30.129 0.68392-50.932 13.053-63.625 32.203-24.064-2.8986-44.062 26.462-44.062 26.462s18.891 10.581 32.062 1.7152c-2.3992 9.758-3.5625 20.28-3.5625 31.258 0 50.6 56.126 91.673 81.844 91.673 26.717 0 81.844-41.073 81.844-91.673 0-10.977-1.1639-21.5-3.5625-31.258 13.171 8.8657 32.031-1.7152 32.031-1.7152s-19.971-29.352-44.031-26.462c-13.062-19.708-34.708-32.203-66.281-32.203-0.89395 0-1.7782-0.01993-2.6562 0z" fill="#784421" stroke="#000" stroke-linecap="round" stroke-linejoin="round" stroke-width="4"/>
  <path d="m382.24 434.17c22.643-2.3692 34.04-7.4462 39.5-12 17.754-14.808 11.325-28.55 22-25.5 10.5 3 10.477 14.695 17.5 18 8.5 4-2.0371-35.168 6.5-32.5 8 2.5 8.9718 22.345 21 27.5 10.5 4.5-6.609-46.583 8-35.5 14.5 11 35 55 1 67s-84.447 15.487-101 15c-17-0.5-32.66-20.1-14.5-22z" fill="#502d16" fill-rule="evenodd" stroke="#000" stroke-linejoin="round" stroke-width="5"/>
  <path transform="matrix(.25175 0 0 .25175 236.55 359.08)" d="m441.29 560.71c0.01482 49.728-40.294 90.048-90.022 90.048s-90.036-40.32-90.022-90.048c-0.01482-49.728 40.294-90.048 90.022-90.048s90.036 40.32 90.022 90.048z" fill="#fff" stroke="#000" stroke-linecap="round" stroke-linejoin="round" stroke-width="15.889"/>
  <path transform="matrix(.25175 0 0 .25175 289.28 359.08)" d="m441.29 560.71c0.01482 49.728-40.294 90.048-90.022 90.048s-90.036-40.32-90.022-90.048c-0.01482-49.728 40.294-90.048 90.022-90.048s90.036 40.32 90.022 90.048z" fill="#fff" stroke="#000" stroke-linecap="round" stroke-linejoin="round" stroke-width="15.889"/>
  <path transform="matrix(.083916 0 0 .083916 343.2 457.18)" d="m441.29 560.71c0.01482 49.728-40.294 90.048-90.022 90.048s-90.036-40.32-90.022-90.048c-0.01482-49.728 40.294-90.048 90.022-90.048s90.036 40.32 90.022 90.048z"/>
  <path transform="matrix(.083916 0 0 .083916 301.17 457.18)" d="m441.29 560.71c0.01482 49.728-40.294 90.048-90.022 90.048s-90.036-40.32-90.022-90.048c-0.01482-49.728 40.294-90.048 90.022-90.048s90.036 40.32 90.022 90.048z"/>
  <path d="m429.83 492.02-1.875 2.9753c0.24888 3.4448 0.34375 6.9476 0.34375 10.501 0 50.6-55.127 91.673-81.844 91.673-20.706 2e-5 -61.097-26.609-76.062-63.391 7.6158 45.08 57.172 79.947 80.875 79.947 26.717 0 81.844-41.073 81.844-91.673 0-10.519-1.0754-20.621-3.2812-30.033z" fill-opacity=".31373"/>
  <path d="m344.46 671.28c0 9.0908-14.665 9.3814-32.735 9.3814s-32.735 0.69349-32.735-9.3814c0-17.716 14.665-32.094 32.735-32.094s32.735 14.378 32.735 32.094z" fill="#502d16" stroke="#000" stroke-linecap="round" stroke-linejoin="round" stroke-width="4"/>
  <path d="m299.13 680.06c0-16.368 9.4428-26.44 9.4428-26.44s-3.7771 13.849-3.1476 26.44h-6.2952z" fill-opacity=".31373" fill-rule="evenodd" stroke="#000" stroke-linejoin="round" stroke-width="4"/>
  <path d="m367.87 576.37c-2.2927 3.9731-6.5002 5.8386-9.3968 4.1663s-3.3847-6.2489-1.0903-10.221 6.5003-5.8386 9.3968-4.1663 3.3847 6.2489 1.0903 10.221z"/>
  <path d="m335.13 576.37c2.2927 3.9731 6.5002 5.8386 9.3968 4.1663s3.3847-6.2489 1.0903-10.221-6.5003-5.8386-9.3968-4.1663-3.3847 6.2489-1.0903 10.221z"/>
  <path d="m319.64 434.17c-22.643-2.3692-34.04-7.4462-39.5-12-17.754-14.808-11.325-28.55-22-25.5-10.5 3-10.477 14.695-17.5 18-8.5 4 2.0371-35.168-6.5-32.5-8 2.5-8.9718 22.345-21 27.5-10.5 4.5 6.609-46.583-8-35.5-14.5 11-35 55-1 67s84.447 15.487 101 15c17-0.5 32.66-20.1 14.5-22z" fill="#502d16" fill-rule="evenodd" stroke="#000" stroke-linejoin="round" stroke-width="5"/>
 </g>
</svg>
