<?xml version="1.0" encoding="UTF-8"?>
<svg width="504" height="424.43" viewBox="0 0 504 424.426" xmlns="http://www.w3.org/2000/svg">
 <defs>
  <linearGradient id="b" x1="506.57" x2="506.57" y1="580.01" y2="589.57" gradientUnits="userSpaceOnUse">
   <stop stop-color="#fbb045" offset="0"/>
   <stop stop-color="#c77829" offset="1"/>
  </linearGradient>
  <linearGradient id="e" x1="483.15" x2="483.15" y1="580.01" y2="589.57" gradientUnits="userSpaceOnUse">
   <stop stop-color="#fbb045" offset="0"/>
   <stop stop-color="#c77829" offset="1"/>
  </linearGradient>
  <linearGradient id="d" x2="0" y1="583.14" y2="594.5" gradientUnits="userSpaceOnUse">
   <stop stop-color="#fbb045" offset="0"/>
   <stop stop-color="#c77829" offset="1"/>
  </linearGradient>
  <linearGradient id="a" x2="0" y1="579.33" y2="588.89" gradientUnits="userSpaceOnUse">
   <stop stop-color="#fbb045" offset="0"/>
   <stop stop-color="#c77829" offset="1"/>
  </linearGradient>
  <linearGradient id="c" x1="443.1" x2="443.1" y1="582.47" y2="593.82" gradientUnits="userSpaceOnUse">
   <stop stop-color="#fbb045" offset="0"/>
   <stop stop-color="#c77829" offset="1"/>
  </linearGradient>
  <linearGradient id="f" x1="249.76" x2="255.56" gradientUnits="userSpaceOnUse">
   <stop stop-color="#fbb045" offset="0"/>
   <stop stop-color="#c77829" offset="1"/>
  </linearGradient>
 </defs>
 <path d="m334.13 393.51c0 13.644-36.77 24.703-82.13 24.703s-82.13-11.06-82.13-24.703 36.771-24.703 82.13-24.703 82.13 11.06 82.13 24.703z" fill="#010101" fill-opacity=".3137"/>
 <path d="m458.98 152.17c-78.083-28.763-80.831 132.2-215.79 161.41-24.945 5.4 69.962 63.146 171.55 2.479 98.793-59 113.92-132.9 44.235-163.89z" fill="#54b948" stroke="#010101" stroke-width="4"/>
 <path d="m485.9 202.42a21.463 21.463 0 1 0 -42.926 0 21.463 21.463 0 1 0 42.926 0" fill="#fff200" stroke="#000" stroke-width="4"/>
 <path d="m481.13 165.67c-0.513-0.431-1.058-0.845-1.59-1.269 6.544 33.249-16.53 78.122-70.857 121.87-72.221 58.156-150.5 43.702-169.47 30.495-1.103 12.94 84.519 53.656 175.54-0.7 86.446-51.622 108.81-114.68 66.374-150.4z" fill="#010101" fill-opacity=".3137"/>
 <path d="m398.74 106.69c-82.867-7.573-43.863 148.61-166.66 211.76-22.698 11.674 83.922 42.888 166.35-42.006 80.155-82.559 75.639-157.85 0.311-169.75z" fill="#54b948" stroke="#010101" stroke-width="4"/>
 <path d="m445.74 154.91a21.463 21.463 0 1 0 -42.926 0 21.463 21.463 0 1 0 42.926 0" fill="#fff200" stroke="#000" stroke-width="4"/>
 <path d="m423.63 114c-0.608-0.283-1.242-0.542-1.865-0.814 14.927 30.423 4.253 79.738-36.899 136.06-54.709 74.867-134.06 81.167-155.8 73.317 2.283 12.786 95.525 29.951 169.38-46.109 70.139-72.238 75.421-138.94 25.188-162.45z" fill="#010101" fill-opacity=".3137"/>
 <path d="m355.4 75.532c-83.212-0.322-30.743 151.87-147.57 225.48-21.594 13.606 87.34 35.41 162.06-56.344 72.658-89.231 61.595-163.84-14.484-169.13z" fill="#54b948" stroke="#010101" stroke-width="4"/>
 <path d="m403.64 114.28a21.463 21.463 0 1 0 -42.926 0 21.463 21.463 0 1 0 42.926 0" fill="#fff200" stroke="#000" stroke-width="4"/>
 <path d="m380.83 80.651c-0.631-0.229-1.285-0.431-1.929-0.648 17.521 29.005 11.188 79.064-24.902 138.75-47.975 79.351-126.48 92.542-148.82 86.618 3.39 12.537 97.773 21.513 164.71-60.696 63.577-78.075 63.025-144.98 10.935-164.03z" fill="#010101" fill-opacity=".3137"/>
 <path d="m300.66 43.352c-82.003 14.132-3.904 154.9-106.18 247.68-18.903 17.149 92.162 19.706 149.81-83.629 56.058-100.49 32.207-172.05-43.634-164.05z" fill="#54b948" stroke="#010101" stroke-width="4"/>
 <path d="m360.75 78.715a21.463 21.463 0 1 0 -42.926 0 21.463 21.463 0 1 0 42.926 0" fill="#fff200" stroke="#000" stroke-width="4"/>
 <path d="m326.6 43.977c-0.66-0.117-1.34-0.202-2.012-0.304 22.292 25.522 24.746 75.92-0.429 140.97-33.467 86.476-108.49 113.1-131.51 111.14 5.515 11.759 100.02 4.208 151.67-88.376 49.053-87.93 36.893-153.72-17.715-163.44z" fill="#010101" fill-opacity=".3137"/>
 <path d="m55.013 138.76c81.893-14.767 56.648 144.22 184.48 196.43 23.628 9.65-79.866 50.041-169.38-27.347-87.048-75.259-89.11-150.66-15.106-169.08z" fill="#54b948" stroke="#010101" stroke-width="4"/>
 <path d="m6.427 222.81c8.568 26.074 29.64 55.567 63.711 85.023 89.513 77.386 193 37.011 169.38 27.362-10.104-4.126-19.286-8.926-27.607-14.248-30.407 9.021-96.02 9.626-155.53-41.822-22.06-19.074-38.668-38.154-49.956-56.315zm105.64-49.067c5.702 12.751 11.716 26.334 18.859 40.09-6.568-14.609-12.483-28.391-18.859-40.09z" fill="#010101" fill-opacity=".3137"/>
 <path d="m55.728 202.42a21.463 21.463 0 1 0 -42.926 0 21.463 21.463 0 1 0 42.926 0" fill="#fff200" stroke="#000" stroke-width="4"/>
 <path d="m97.979 106.69c82.869-7.574 43.864 148.61 166.66 211.76 22.697 11.673-83.922 42.888-166.35-42.006-80.158-82.559-75.641-157.85-0.313-169.75z" fill="#54b948" stroke="#010101" stroke-width="4"/>
 <path d="m42.252 186.19c6.263 26.722 24.684 57.939 56.058 90.252 82.428 84.894 189.05 53.692 166.35 42.021-9.707-4.99-18.436-10.572-26.261-16.6-31.077 6.337-96.493 1.22-151.29-55.218-20.314-20.924-35.195-41.378-44.858-60.455zm109.51-39.672c4.568 13.199 9.376 27.255 15.293 41.581-5.27-15.126-9.96-29.372-15.293-41.581z" fill="#010101" fill-opacity=".3137"/>
 <path d="m91.832 166.86a21.463 21.463 0 1 0 -42.926 0 21.463 21.463 0 1 0 42.926 0" fill="#fff200" stroke="#000" stroke-width="4"/>
 <path d="m141.32 75.536c83.214-0.323 30.744 151.87 147.57 225.48 21.594 13.605-87.341 35.41-162.06-56.345-72.656-89.231-61.594-163.84 14.484-169.13z" fill="#54b948" stroke="#010101" stroke-width="4"/>
 <path d="m78.879 149.88c3.91 27.166 19.54 59.871 47.979 94.796 74.715 91.754 183.65 69.963 162.05 56.359-9.234-5.818-17.443-12.14-24.714-18.825-31.512 3.603-96.232-7.195-145.9-68.195-18.414-22.614-31.455-44.288-39.418-64.135zm112.55-29.977c3.401 13.548 6.964 27.969 11.611 42.756-3.932-15.528-7.363-30.128-11.611-42.756z" fill="#010101" fill-opacity=".3137"/>
 <path d="m132.57 126.23a21.463 21.463 0 1 0 -42.926 0 21.463 21.463 0 1 0 42.926 0" fill="#fff200" stroke="#000" stroke-width="4"/>
 <path d="m196.06 43.354c82.004 14.132 3.906 154.9 106.18 247.68 18.903 17.149-92.163 19.706-149.81-83.629-56.059-100.49-32.209-172.05 43.633-164.05z" fill="#54b948" stroke="#010101" stroke-width="4"/>
 <path d="m121.65 105.72c-0.867 27.432 8.847 62.354 30.789 101.69 57.647 103.33 168.71 100.79 149.8 83.643-8.084-7.333-15.071-14.983-21.069-22.831-31.659-1.923-93.521-23.795-131.84-92.493-14.208-25.47-23.287-49.079-27.683-70.006zm116.05-9.979c0.997 13.932 2.002 28.753 4.01 44.122-1.176-15.973-2.02-30.948-4.01-44.122z" fill="#010101" fill-opacity=".3137"/>
 <path d="m180.88 78.715a21.463 21.463 0 1 0 -42.926 0 21.463 21.463 0 1 0 42.926 0" fill="#fff200" stroke="#000" stroke-width="4"/>
 <path d="m247.63 284.43s132.48-282.07 3.639-282.43-3.639 282.43-3.639 282.43z" fill="#54b948" stroke="#010101" stroke-width="4"/>
 <path d="m279.15 45.713a27.15 27.15 0 1 0 -54.3 0 27.15 27.15 0 1 0 54.3 0" fill="#fff200" stroke="#000" stroke-width="4"/>
 <path d="m247 0.235c-0.671 0-1.354 0.033-2.034 0.05 26.385 21.264 37.554 70.469 24.056 138.9-17.94 90.973-8.656 90.698-23.942 136.19 3.276 21.474 12.96-17.125 47.746-117.27 33.039-95.111 9.637-157.79-45.826-157.88z" fill="#010101" fill-opacity=".3137"/>
 <g transform="translate(-216.73 -178.06)">
  <path d="m543.07 510.78c0.012 41.071-33.279 74.372-74.349 74.372s-74.362-33.301-74.349-74.372c-0.013-41.07 33.278-74.371 74.349-74.371s74.361 33.301 74.349 74.371z" fill="#50a5dc" stroke="#010101" stroke-linecap="round" stroke-linejoin="round" stroke-width="4"/>
  <path d="m538.58,485.272c.052,1.142.085,2.304.085,3.457 0,41.042-33.305,74.347-74.345,74.347-32.081,0-59.454-20.362-69.871-48.851 1.801,39.445 34.396,70.91 74.283,70.91 41.039,0 74.345-33.305 74.345-74.346 0-8.96-1.587-17.559-4.497-25.517z" fill="#010101" fill-opacity=".3137"/>
  <path d="m516.24 578.98c0 8.631-4.331 15.628-9.673 15.628s-9.672-6.997-9.672-15.628 4.33-15.628 9.672-15.628 9.673 6.998 9.673 15.628z" fill="url(#b)" stroke="#010101" stroke-linecap="round" stroke-linejoin="round" stroke-width="4"/>
  <path d="m492.82 578.98c0 8.631-4.331 15.628-9.673 15.628s-9.673-6.997-9.673-15.628 4.331-15.628 9.673-15.628 9.673 6.998 9.673 15.628z" fill="url(#e)" stroke="#010101" stroke-linecap="round" stroke-linejoin="round" stroke-width="4"/>
  <path d="m504.36 581.92c0 10.255-4.33 18.567-9.672 18.567s-9.673-8.313-9.673-18.567 4.331-18.567 9.673-18.567 9.672 8.313 9.672 18.567z" fill="url(#d)" stroke="#010101" stroke-linecap="round" stroke-linejoin="round" stroke-width="4"/>
  <path d="m464.65 578.3c0 8.631-4.331 15.628-9.673 15.628s-9.672-6.997-9.672-15.628 4.33-15.628 9.672-15.628 9.673 6.997 9.673 15.628z" fill="url(#a)" stroke="#010101" stroke-linecap="round" stroke-linejoin="round" stroke-width="4"/>
  <path d="m441.24 578.3c0 8.631-4.331 15.628-9.673 15.628s-9.672-6.997-9.672-15.628 4.331-15.628 9.672-15.628 9.673 6.997 9.673 15.628z" fill="url(#a)" stroke="#010101" stroke-linecap="round" stroke-linejoin="round" stroke-width="4"/>
  <path d="m452.78 581.24c0 10.255-4.33 18.567-9.672 18.567s-9.672-8.313-9.672-18.567 4.331-18.567 9.672-18.567 9.672 8.313 9.672 18.567z" fill="url(#c)" stroke="#010101" stroke-linecap="round" stroke-linejoin="round" stroke-width="4"/>
  <path d="m430.89 563.35c-3.941 0-7.317 3.821-8.824 9.29 12.877 3.444 27.024 5.453 41.893 5.728-0.203-8.339-4.441-15.018-9.651-15.018-2.24 0-4.299 1.24-5.938 3.309-1.641-2.068-3.699-3.309-5.939-3.309-2.162 0-4.158 1.157-5.77 3.097-1.613-1.94-3.609-3.097-5.771-3.097zm52.264 0c-5.196 0-9.429 6.646-9.651 14.954 14.853-0.479 28.926-2.704 41.701-6.343-1.593-5.102-4.857-8.611-8.633-8.611-2.24 0-4.298 1.24-5.938 3.309-1.641-2.068-3.699-3.309-5.939-3.309-2.162 0-4.158 1.157-5.77 3.097-1.611-1.94-3.608-3.097-5.77-3.097z" fill="#010101" fill-opacity=".3137"/>
  <path d="m521.82 462.84c-32.656 11.743 9.613 63.9-25.67 109.41-6.522 8.412 39.278 1.419 55.47-45.195 15.746-45.332 0.769-72.994-29.8-64.216z" fill="#50a5dc" stroke="#010101" stroke-width="4"/>
  <path d="m532.515,461.215c-.28,0-.564.014-.849.021 11.004,8.867 15.661,29.388 10.033,57.928-7.482,37.939-36.366,54.307-45.965,55.171 3.116,4.43 41.384-5.516 55.892-47.28 13.778-39.665 4.018-65.806-19.111-65.84z" fill="#010101" fill-opacity=".3137"/>
  <path d="m415.63 462.84c32.656 11.743-9.613 63.9 25.67 109.41 6.522 8.412-39.278 1.419-55.47-45.195-15.746-45.332-0.769-72.994 29.8-64.216z" fill="#50a5dc" stroke="#010101" stroke-width="4"/>
  <path d="m380.9 483.74c-2.343 11.204-0.882 26.25 5.281 43.992 16.192 46.614 61.989 53.613 55.468 45.201-2.789-3.597-5.104-7.245-7-10.902-12.863-3.082-36.686-16.546-47.45-47.534-3.99-11.489-6.009-21.844-6.299-30.757z" fill="#010101" fill-opacity=".3137"/>
  <path d="m433.07 460.99c16.63-25.727 13.575-87.379 13.575-87.379l40.726-2.218s-1.019 62.097 15.95 88.267" fill="#50a5dc" stroke="#010101" stroke-linecap="round" stroke-linejoin="round" stroke-width="4"/>
  <path d="m502.55 462.7a34.108 11.539 0 1 0 -68.216 0 34.108 11.539 0 1 0 68.216 0" fill="#50a5dc"/>
  <path d="m487.36,371.386-11.645.636-29.081,1.591c0,0 .164,3.295.213,8.527 8.932,5.604 17.933,8.867 24.244,8.867 2.259,0 4.823-.389 7.572-1.125 4.199,22.631 11.992,54.534 24.456,69.574l-.679.232 .87-.021c-11.68-18.012-14.82-53.047-15.654-73.137-.094-2.275-.166-4.369-.212-6.215-.035-1.476-.052-2.781-.063-3.924-.012-.921-.019-1.613-.021-2.291-.004-1.052-.004-1.187 0-1.633 .002-.708 0-1.081 0-1.081z" fill="#010101" fill-opacity=".3137"/>
  <path d="m501.47 281.63c-8.836-6.217-20.052-9.864-33.225-9.864-11.985 0-22.209 2.85-30.503 7.799-9.486 6.557-17.105 16.083-21.778 27.396-2.153 6.305-3.271 13.17-3.271 20.357 0 30.663 38.096 55.552 55.552 55.552 18.135 0 55.552-24.889 55.552-55.552 0-7.406-1.242-14.472-3.599-20.934-4.212-9.928-10.7-18.452-18.728-24.754z" fill="#50a5dc" stroke="#010101" stroke-linecap="round" stroke-linejoin="round" stroke-width="4"/>
  <path d="m519.24 300.9c1.191 5.181 1.782 10.672 1.782 16.375 0 30.663-37.418 55.553-55.552 55.553-14.055 0-41.471-16.125-51.629-38.414 5.169 27.318 38.807 48.447 54.896 48.447 18.133 0 55.552-24.89 55.552-55.552 0-9.558-1.639-18.553-5.049-26.409z" fill="#010101" fill-opacity=".3137"/>
 </g>
 <path d="m233.96 109.67c-12.521 0-22.688 11.756-22.688 26.242s10.167 26.241 22.688 26.241c7.355 0 13.885-4.063 18.029-10.353 4.145 6.293 10.687 10.353 18.047 10.353 12.519 0 22.688-11.756 22.688-26.241s-10.169-26.242-22.688-26.242c-7.358 0-13.902 4.061-18.047 10.353-4.144-6.286-10.673-10.353-18.029-10.353z" stroke="#010101" stroke-linecap="round" stroke-width="4"/>
 <path d="m252.86 159.85c-6.354 0-13.261 7.066-12.985 11.528s11.328 23.057 13.814 23.057 12.156-18.223 11.881-23.428c-0.277-5.208-8.565-11.53-12.71-11.157z" fill="#010101" fill-opacity=".3137"/>
 <path d="m251.41 152.59c-6.354 0-13.262 6.368-12.984 10.389s11.328 20.778 13.813 20.778 12.157-16.422 11.881-21.113-8.564-10.389-12.71-10.054z" fill="url(#f)" stroke="#010101" stroke-width="4"/>
 <path d="m236.6 113.51c-10.689 0-19.371 10.037-19.371 22.405s8.682 22.405 19.371 22.405c6.281 0 11.855-3.47 15.394-8.839 3.539 5.374 9.125 8.839 15.409 8.839 10.688 0 19.371-10.037 19.371-22.405s-8.683-22.405-19.371-22.405c-6.283 0-11.87 3.467-15.409 8.839-3.538-5.367-9.114-8.839-15.394-8.839z" fill="#fff" stroke="#010101" stroke-linecap="round" stroke-width="4"/>
 <path d="m250.77 137.43c0 3.097-2.511 5.607-5.607 5.607s-5.608-2.511-5.608-5.607 2.511-5.608 5.608-5.608 5.607 2.51 5.607 5.608z" fill="#010101" stroke="#010101" stroke-linecap="round" stroke-width="4"/>
 <path d="m244.59,135.468c0,.803-.65,1.454-1.454,1.454s-1.454-.651-1.454-1.454 .651-1.455 1.454-1.455 1.454.651 1.454,1.455z" fill="#fff"/>
 <path d="m264.97 137.43c0 3.097-2.511 5.607-5.607 5.607s-5.608-2.511-5.608-5.607 2.511-5.608 5.608-5.608 5.607 2.51 5.607 5.608z" fill="#010101" stroke="#010101" stroke-linecap="round" stroke-width="4"/>
 <path d="m258.792,135.468c0,.803-.65,1.454-1.454,1.454s-1.454-.651-1.454-1.454 .65-1.455 1.454-1.455 1.454.651 1.454,1.455z" fill="#fff"/>
 <path d="m271.72 106.45c-4.055-12.429 5.738-30.949 5.738-30.949l-13.577-2.292s1.303 20.02-6.236 29.221" fill="#50a5dc" stroke="#010101" stroke-linecap="round" stroke-width="4"/>
 <path d="m283.784,65.677c.462,6.541-4.469,12.215-11.008,12.674s-12.216-4.469-12.675-11.01c-.001-.002 0-.005-.002-.009-.459-6.54 4.471-12.214 11.012-12.674s12.214,4.47 12.673,11.009v.01z" fill="#d81921" stroke="#010101" stroke-linecap="round" stroke-linejoin="round" stroke-width="4"/>
 <path d="m245.52 104.12c-8.061-10.292-5.192-31.044-5.192-31.044l-13.542 2.49s8.07 18.367 4.133 29.591" fill="#50a5dc" stroke="#010101" stroke-linecap="round" stroke-width="4"/>
 <path d="m242.907,61.679c2.671,5.989-.022,13.007-6.01,15.676s-13.008-.022-15.677-6.011l-.004-.007c-2.669-5.988.022-13.007 6.013-15.676s13.006.023 15.674,6.011l.004.007z" fill="#d81921" stroke="#010101" stroke-linecap="round" stroke-linejoin="round" stroke-width="4"/>
</svg>
